<svg width="141" height="65" viewBox="0 0 141 65" xmlns="http://www.w3.org/2000/svg"><title>Combined Shape</title><path d="M17.874 1.326l7.813 10.301v-10.3h5.923v20.057H26.14L18.354 11.14v10.244h-5.95V1.326h5.47zm38.331 9.733c0 5.172-3.518 9.525-8.253 10.728v3.3h4.375v5.377h-4.375V43.05h-5.298V30.464H38.28v-5.376h4.374v-3.301c-4.735-1.203-8.252-5.556-8.252-10.728C34.402 4.961 39.292 0 45.303 0s10.902 4.961 10.902 11.06zm-16.754 0c0 3.274 2.625 5.938 5.852 5.938 3.227 0 5.852-2.664 5.852-5.938 0-3.273-2.625-5.937-5.852-5.937-3.227 0-5.852 2.664-5.852 5.937zM16.725 22.992v5.036H6.543v2.461h9.252v5.035H6.543v2.49H16.98v5.036H0V22.992h16.725zm10.746 4.778c-.733 0-1.212.23-1.212.83 0 2.518 10.238.944 10.238 8.212 0 4.464-3.865 6.438-8.32 6.438-3.441 0-7.278-1.173-9.9-3.205l2.425-4.978c2.031 1.717 5.529 3.118 7.531 3.118.959 0 1.58-.314 1.58-1.03 0-2.603-10.239-.887-10.239-7.925 0-4.006 3.328-6.525 8.462-6.525 3.13 0 6.374.945 8.602 2.376l-2.37 5.036C32.267 29 29.193 27.77 27.472 27.77zm39.434 12.447h-7.418l-1.015 2.832h-6.713l8.348-20.057h6.713L74.86 43.05h-6.967l-.987-2.832zm-1.608-4.75l-2.03-5.866-2.088 5.866h4.118zm17.6-12.475l4.316 10.472 4.315-10.472h6.91V43.05h-5.697V32.063l-3.384 9.04h-4.288l-3.384-9.04V43.05h-5.698V22.992h6.91zm39.093 10.015c0 5.951-4.57 10.329-10.858 10.329-6.29 0-10.86-4.35-10.86-10.33 0-5.95 4.57-10.215 10.86-10.215 6.288 0 10.858 4.293 10.858 10.216zm-15.005.028c0 2.747 1.974 4.778 4.23 4.778 2.258 0 4.062-2.031 4.062-4.778 0-2.747-1.804-4.721-4.062-4.721-2.285 0-4.23 1.974-4.23 4.721zm24.849-5.265c-.733 0-1.213.23-1.213.83 0 2.518 10.238.944 10.238 8.212 0 4.464-3.864 6.438-8.32 6.438-3.44 0-7.277-1.173-9.9-3.205l2.426-4.978c2.03 1.717 5.528 3.118 7.53 3.118.96 0 1.58-.314 1.58-1.03 0-2.603-10.238-.887-10.238-7.925 0-4.006 3.327-6.525 8.46-6.525 3.132 0 6.375.945 8.603 2.376l-2.37 5.036c-2.001-1.116-5.076-2.347-6.796-2.347zM37.173 44.656v5.236H31.53v14.822h-6.543V49.892h-5.612v-5.236h17.797zM58.609 54.67C58.609 60.622 54.039 65 47.75 65c-6.29 0-10.86-4.35-10.86-10.33 0-5.95 4.57-10.215 10.86-10.215 6.29 0 10.859 4.293 10.859 10.216zm-15.005.028c0 2.747 1.974 4.778 4.23 4.778 2.256 0 4.062-2.031 4.062-4.778 0-2.747-1.806-4.721-4.061-4.721-2.285 0-4.231 1.974-4.231 4.721zm36.412-.028c0 6.094-4.315 10.043-10.999 10.043h-8.575V44.656h8.828c6.516 0 10.746 3.92 10.746 10.015zm-6.684.057c0-2.976-1.665-4.922-4.202-4.922h-2.145v9.757h2.455c2.369 0 3.892-1.888 3.892-4.835zM94.74 61.88h-7.418l-1.015 2.832h-6.713l8.349-20.057h6.712l8.039 20.057h-6.967l-.987-2.832zm-1.608-4.75l-2.031-5.865-2.087 5.865h4.118zm18.7-7.697c-.732 0-1.213.23-1.213.83 0 2.518 10.24.944 10.24 8.212 0 4.464-3.865 6.438-8.322 6.438-3.44 0-7.277-1.174-9.9-3.205l2.427-4.978c2.03 1.717 5.527 3.118 7.53 3.118.96 0 1.58-.314 1.58-1.03 0-2.604-10.239-.887-10.239-7.926 0-4.005 3.328-6.523 8.462-6.523 3.13 0 6.374.944 8.602 2.374l-2.37 5.036c-2.002-1.116-5.076-2.346-6.796-2.346z" fill="#FFF" fill-rule="evenodd"/></svg>